<svg width="200" height="200" viewBox="0 0 200 200" fill="none" xmlns="http://www.w3.org/2000/svg">
  <!-- Left arc -->
  <path d="M40,100 Q20,60 60,30" stroke="#eaf6fb" stroke-width="10" fill="none"/>
  <!-- Right arc -->
  <path d="M160,100 Q180,60 140,30" stroke="#eaf6fb" stroke-width="10" fill="none"/>
  <!-- Bottom arc (optional for symmetry) -->
  <path d="M60,170 Q100,190 140,170" stroke="#eaf6fb" stroke-width="10" fill="none"/>
  <!-- Lower hand -->
  <path d="M70,140 Q80,150 100,150 Q120,150 130,140 Q120,145 110,140 Q100,135 90,140 Q80,145 70,140 Z" fill="#eaf6fb"/>
  <!-- Upper hand -->
  <path d="M130,60 Q120,50 100,50 Q80,50 70,60 Q80,55 90,60 Q100,65 110,60 Q120,55 130,60 Z" fill="#eaf6fb"/>
  <!-- Money note -->
  <rect x="85" y="85" width="30" height="20" rx="3" fill="#60efff" stroke="#00bfff" stroke-width="2"/>
  <ellipse cx="100" cy="95" rx="5" ry="7" fill="none" stroke="#00bfff" stroke-width="2"/>
  <!-- Money note outline for effect -->
  <rect x="90" y="90" width="30" height="20" rx="3" fill="none" stroke="#00bfff" stroke-width="1"/>
</svg> 